<svg xmlns="http://www.w3.org/2000/svg" enable-background="new 0 0 32 32" viewBox="0 0 32 32" id="leftarrow"><path d="M16,0.5C7.45001,0.5,0.5,7.45001,0.5,16S7.45001,31.5,16,31.5S31.5,24.54999,31.5,16S24.54999,0.5,16,0.5z M22.02002,22.69c0,0.54999-0.30005,1.06-0.79004,1.32001C21.01001,24.13,20.76001,24.19,20.52002,24.19c-0.29004,0-0.58002-0.09003-0.83002-0.25l-7.75-5.14001V22.69c0,0.82996-0.66998,1.5-1.5,1.5c-0.82001,0-1.5-0.67004-1.5-1.5V9.31c0-0.83002,0.67999-1.5,1.5-1.5c0.83002,0,1.5,0.66998,1.5,1.5v3.89001L19.69,8.06c0.46002-0.29999,1.04999-0.33002,1.53998-0.07001S22.02002,8.76001,22.02002,9.31V22.69z" fill="#009246" class="color000000 svgShape"></path><polygon points="19.02 19.89 19.02 12.11 13.16 16" fill="#009246" class="color000000 svgShape"></polygon></svg>