<svg xmlns="http://www.w3.org/2000/svg" fill="none" height="24" viewBox="0 0 24 24" width="24"><g fill="#292d32"><path d="m17.6896 20.0902c-.57 0-1.13-.15-1.65-.45l-8.29-4.78c-1.03-.6-1.64999-1.67-1.64999-2.86s.61999-2.26001 1.64999-2.86001l8.29-4.78003c1.03-.6 2.26-.6 3.3 0s1.65 1.66001 1.65 2.86001v9.57003c0 1.19-.62 2.26-1.65 2.86-.52.29-1.08.44-1.65.44zm0-14.68003c-.31 0-.62.07999-.9.23999l-8.29 4.78004c-.56.33-.89999.91-.89999 1.56s.33999 1.23.89999 1.56l8.29 4.78c.56.33 1.24.33 1.8 0s.9-.91.9-1.56v-9.57002c0-.65-.34-1.22999-.9-1.55999-.28-.14-.59-.23002-.9-.23002z"/><path d="m3.75977 18.9298c-.41 0-.75-.34-.75-.75v-12.35998c0-.41.34-.75.75-.75s.75.34.75.75v12.35998c0 .41-.34.75-.75.75z"/></g></svg>